<svg xmlns="http://www.w3.org/2000/svg" width="900" height="360" viewBox="0 0 900 360">
<rect width="900" height="360" fill="none"/>
<g transform="translate(72,38)">
  <path d="M115 118c-43 0-73-28-73-63s30-55 62-55c20 0 38 7 49 21 13-15 32-23 54-23 38 0 70 26 70 61 0 32-26 55-62 59l-27 20 5-20z"
        fill="none" stroke="#604b3a" stroke-width="10" stroke-linecap="round" stroke-linejoin="round"/>
  <path d="M151 48l9 18 18 9-18 9-9 18-9-18-18-9 18-9z" fill="#c67b43"/>
  <path d="M132 104l29-17 29 17-29 17z" fill="#c67b43"/>
  <path d="M132 104v34l29 17v-34z" fill="#604b3a"/>
  <path d="M190 104v34l-29 17v-34z" fill="#cbb79f"/>
</g>
<text x="370" y="150" font-family="Arial, sans-serif" font-size="68" font-weight="700" fill="#604b3a">은유제작소</text>
<text x="374" y="205" font-family="Arial, sans-serif" font-size="27" letter-spacing="8" fill="#8f725c">EUNYU MADE</text>
<text x="375" y="252" font-family="Arial, sans-serif" font-size="18" fill="#ad8c70">LOGO PLACEHOLDER · 로고 파일을 교체해 주세요</text>
</svg>